<svg xmlns="http://www.w3.org/2000/svg" viewBox="0 0 324.822 324.822"><circle cx="162.411" cy="162.411" r="162.411" fill="#25d4d8"/><path fill="#fff" d="M253.411 90.575c0-8.375-6.789-15.164-15.164-15.164H86.575c-8.375 0-15.164 6.789-15.164 15.164v11.673c0 8.375 6.789 15.164 15.164 15.164h151.672c8.375 0 15.164-6.789 15.164-15.164V90.575zm-53 63.566c0-7.031-5.699-12.73-12.73-12.73H84.141c-7.031 0-12.73 5.699-12.73 12.73v16.54c0 7.031 5.699 12.73 12.73 12.73h103.54c7.031 0 12.73-5.699 12.73-12.73v-16.54zm-58 66.554c0-7.336-5.947-13.284-13.284-13.284H84.695c-7.336 0-13.284 5.947-13.284 13.284v15.433c0 7.336 5.947 13.284 13.284 13.284h44.433c7.336 0 13.284-5.947 13.284-13.284v-15.433z"/></svg>
